/* XPM */
static char * stuck_focus_xpm[] = {
"16 16 3 1",
" 	c None",
".	c #433E2B",
"+	c #FFFFFF",
"................",
"................",
"................",
"................",
"................",
"................",
"......++++......",
"......++++......",
"......++++......",
"......++++......",
"................",
"................",
"................",
"................",
"................",
"................"};
